<?xml version="1.0" encoding="iso-8859-1"?>
<!-- Generator: Adobe Illustrator 19.0.0, SVG Export Plug-In . SVG Version: 6.00 Build 0)  -->
<svg version="1.1" id="Capa_1" xmlns="http://www.w3.org/2000/svg" xmlns:xlink="http://www.w3.org/1999/xlink" x="0px" y="0px"
	 viewBox="0 0 512 512" style="enable-background:new 0 0 512 512;" xml:space="preserve">
<g>
	<g>
		<path d="M462.419,49.581C430.446,17.608,387.937,0,342.72,0c-45.217,0-87.727,17.608-119.699,49.581
			c-24.538,24.538-40.75,55.498-46.885,89.533c-5.374,29.817-2.748,60.143,7.571,88.335L0,411.157V512h100.843l183.708-183.708
			c28.192,10.318,58.519,12.945,88.335,7.571c34.036-6.135,64.996-22.347,89.533-46.885C494.392,257.006,512,214.497,512,169.28
			C512,124.063,494.392,81.554,462.419,49.581z M441.206,267.766c-20.191,20.191-45.656,33.529-73.642,38.573
			c-27.367,4.933-55.247,1.685-80.625-9.395l-9.375-4.093l-41.401,41.401l-29.208-29.208l-21.213,21.213l29.208,29.208
			l-28.324,28.324l-29.208-29.208l-21.213,21.213l29.208,29.208l-28.324,28.324l-29.208-29.208l-21.213,21.213l29.208,29.208
			L88.417,482H30v-58.417l189.148-189.148l-4.093-9.375c-11.079-25.376-14.327-53.256-9.395-80.625
			c5.044-27.986,18.382-53.451,38.573-73.642C270.541,44.488,305.517,30,342.72,30s72.179,14.488,98.486,40.794
			C467.512,97.101,482,132.077,482,169.28S467.512,241.459,441.206,267.766z"/>
	</g>
</g>
<g>
	<g>
		<path d="M419.96,92.042c-9.643-9.643-22.463-14.953-36.099-14.953s-26.456,5.311-36.098,14.953
			c-19.904,19.904-19.904,52.291,0,72.196c9.952,9.952,23.025,14.928,36.098,14.928s26.146-4.976,36.098-14.928
			c9.642-9.642,14.953-22.462,14.953-36.098S429.601,101.684,419.96,92.042z M398.746,143.024c-8.208,8.207-21.562,8.207-29.769,0
			c-8.208-8.208-8.208-21.562,0-29.77c3.976-3.976,9.262-6.166,14.885-6.166c5.623,0,10.909,2.19,14.885,6.166
			c3.976,3.976,6.166,9.262,6.166,14.884S402.721,139.048,398.746,143.024z"/>
	</g>
</g>
<g>
</g>
<g>
</g>
<g>
</g>
<g>
</g>
<g>
</g>
<g>
</g>
<g>
</g>
<g>
</g>
<g>
</g>
<g>
</g>
<g>
</g>
<g>
</g>
<g>
</g>
<g>
</g>
<g>
</g>
</svg>
