<?xml version="1.0" encoding="iso-8859-1"?>
<!-- Generator: Adobe Illustrator 19.0.0, SVG Export Plug-In . SVG Version: 6.00 Build 0)  -->
<svg version="1.1" id="Capa_1" xmlns="http://www.w3.org/2000/svg" xmlns:xlink="http://www.w3.org/1999/xlink" x="0px" y="0px"
	 viewBox="0 0 512 512" style="enable-background:new 0 0 512 512;" xml:space="preserve">
<g>
	<g>
		<path d="M512,90.048V0H0v512h90.048V90.048h60.024v30h-30.024v261.271H512V120.048h-30.024v-30H512z M482,150.048v201.271H150.048
			V150.048H482z M180.072,120.048v-30h30.048v30H180.072z M240.12,120.048v-30h151.809v30H240.12z M421.928,120.048v-30h30.048v30
			H421.928z M60.048,60.048V482H30V30h452v30.048H60.048z"/>
	</g>
</g>
<g>
	<g>
		<path d="M316.024,179.722l-63.508,51.935v89.613h127.016v-89.613L316.024,179.722z M349.532,291.271h-67.016v-45.393
			l33.508-27.402l33.508,27.402V291.271z"/>
	</g>
</g>
<g>
</g>
<g>
</g>
<g>
</g>
<g>
</g>
<g>
</g>
<g>
</g>
<g>
</g>
<g>
</g>
<g>
</g>
<g>
</g>
<g>
</g>
<g>
</g>
<g>
</g>
<g>
</g>
<g>
</g>
</svg>
