<?xml version="1.0" encoding="iso-8859-1"?>
<!-- Generator: Adobe Illustrator 19.0.0, SVG Export Plug-In . SVG Version: 6.00 Build 0)  -->
<svg version="1.1" id="Capa_1" xmlns="http://www.w3.org/2000/svg" xmlns:xlink="http://www.w3.org/1999/xlink" x="0px" y="0px"
	 viewBox="0 0 512 512" style="enable-background:new 0 0 512 512;" xml:space="preserve">
<g>
	<g>
		<path d="M413.56,0H98.44L0,108.197V512h512V108.197L413.56,0z M406.988,482H105.012v-30.048h301.976V482z M406.988,421.952
			H105.012v-30.048h301.976V421.952z M406.988,361.904H105.012v-30.048h301.976V361.904z M406.988,301.856H105.012v-30.048h301.976
			V301.856z M406.988,241.808H105.012V211.76h301.976V241.808z M406.988,181.76H105.012v-30.048h301.976V181.76z M482,482h-45.012
			V121.712H75.012V482H30V119.803L111.704,30h288.592L482,119.803V482z"/>
	</g>
</g>
<g>
</g>
<g>
</g>
<g>
</g>
<g>
</g>
<g>
</g>
<g>
</g>
<g>
</g>
<g>
</g>
<g>
</g>
<g>
</g>
<g>
</g>
<g>
</g>
<g>
</g>
<g>
</g>
<g>
</g>
</svg>
