<?xml version="1.0" encoding="iso-8859-1"?>
<!-- Generator: Adobe Illustrator 19.0.0, SVG Export Plug-In . SVG Version: 6.00 Build 0)  -->
<svg version="1.1" id="Capa_1" xmlns="http://www.w3.org/2000/svg" xmlns:xlink="http://www.w3.org/1999/xlink" x="0px" y="0px"
	 viewBox="0 0 511.999 511.999" style="enable-background:new 0 0 511.999 511.999;" xml:space="preserve">
<g>
	<g>
		<path d="M255.999,0L0.003,116.437v395.562h511.993V116.437L255.999,0z M150.122,482h-30.048v-30.048h30.048V482z M421.95,331.858
			v90.095H90.05v-90.095H421.95z M134.348,301.859l35.04-70.079h173.225l35.04,70.079H134.348z M331.878,482H180.121v-30.048
			h151.758V482z M391.926,482h-30.048v-30.048h30.048V482z M481.996,482h-60.071v-30.048h30.024V301.859h-40.757L361.152,201.78
			H150.847l-50.039,100.079H60.05v150.094h30.024V482H30.003V135.75L255.999,32.957L481.996,135.75V482z"/>
	</g>
</g>
<g>
	<g>
		<rect x="120.088" y="361.905" width="40.029" height="30"/>
	</g>
</g>
<g>
	<g>
		<rect x="351.885" y="361.905" width="40.029" height="30"/>
	</g>
</g>
<g>
</g>
<g>
</g>
<g>
</g>
<g>
</g>
<g>
</g>
<g>
</g>
<g>
</g>
<g>
</g>
<g>
</g>
<g>
</g>
<g>
</g>
<g>
</g>
<g>
</g>
<g>
</g>
<g>
</g>
</svg>
