<?xml version="1.0" encoding="iso-8859-1"?>
<!-- Generator: Adobe Illustrator 19.0.0, SVG Export Plug-In . SVG Version: 6.00 Build 0)  -->
<svg version="1.1" id="Capa_1" xmlns="http://www.w3.org/2000/svg" xmlns:xlink="http://www.w3.org/1999/xlink" x="0px" y="0px"
	 viewBox="0 0 512 512" style="enable-background:new 0 0 512 512;" xml:space="preserve">
<g>
	<g>
		<path d="M413.949,216.785L304.024,106.86c4.45-7.939,6.999-17.081,6.999-26.812c0-30.34-24.684-55.024-55.024-55.024
			c-30.34,0-55.024,24.684-55.024,55.024c0,9.73,2.549,18.872,6.999,26.812L98.051,216.785H0v270.192h512V216.785H413.949z
			 M256,55.025c13.798,0,25.024,11.226,25.024,25.024c0,13.798-11.226,25.024-25.024,25.024c-13.798,0-25.024-11.226-25.024-25.024
			C230.976,66.251,242.202,55.025,256,55.025z M229.188,128.073c7.939,4.45,17.081,6.999,26.812,6.999s18.872-2.549,26.812-6.999
			l88.711,88.712H140.477L229.188,128.073z M482,456.977H30V246.785h452V456.977z"/>
	</g>
</g>
<g>
	<g>
		<rect x="133.67" y="366.9" width="244.67" height="30"/>
	</g>
</g>
<g>
	<g>
		<rect x="133.67" y="306.861" width="244.67" height="30"/>
	</g>
</g>
<g>
</g>
<g>
</g>
<g>
</g>
<g>
</g>
<g>
</g>
<g>
</g>
<g>
</g>
<g>
</g>
<g>
</g>
<g>
</g>
<g>
</g>
<g>
</g>
<g>
</g>
<g>
</g>
<g>
</g>
</svg>
