<?xml version="1.0" encoding="iso-8859-1"?>
<!-- Generator: Adobe Illustrator 19.0.0, SVG Export Plug-In . SVG Version: 6.00 Build 0)  -->
<svg version="1.1" id="Capa_1" xmlns="http://www.w3.org/2000/svg" xmlns:xlink="http://www.w3.org/1999/xlink" x="0px" y="0px"
	 viewBox="0 0 512 512" style="enable-background:new 0 0 512 512;" xml:space="preserve">
<g>
	<g>
		<path d="M512,421.928V30.024H0v391.904h180.952v30.048H138v30h236v-30h-42.952v-30.048H512z M30,60.024h452v30.048H30V60.024z
			 M30,120.072h452V331.88H30V120.072z M301.048,451.976h-90.096v-30.048h90.096V451.976z M30,391.928V361.88h452v30.048H30z"/>
	</g>
</g>
<g>
	<g>
		<path d="M172.699,149.747l-68.277,55.835v96.25h136.554v-96.25L172.699,149.747z M210.975,271.832H134.42v-52.03h0.001
			l38.277-31.302l38.277,31.302V271.832z"/>
	</g>
</g>
<g>
	<g>
		<rect x="286.02" y="271.83" width="135.92" height="30"/>
	</g>
</g>
<g>
	<g>
		<rect x="286.02" y="210.98" width="135.92" height="30"/>
	</g>
</g>
<g>
	<g>
		<rect x="286.02" y="150.12" width="135.92" height="30"/>
	</g>
</g>
<g>
</g>
<g>
</g>
<g>
</g>
<g>
</g>
<g>
</g>
<g>
</g>
<g>
</g>
<g>
</g>
<g>
</g>
<g>
</g>
<g>
</g>
<g>
</g>
<g>
</g>
<g>
</g>
<g>
</g>
</svg>
