<?xml version="1.0" encoding="iso-8859-1"?>
<!-- Generator: Adobe Illustrator 19.0.0, SVG Export Plug-In . SVG Version: 6.00 Build 0)  -->
<svg version="1.1" id="Capa_1" xmlns="http://www.w3.org/2000/svg" xmlns:xlink="http://www.w3.org/1999/xlink" x="0px" y="0px"
	 viewBox="0 0 512 512" style="enable-background:new 0 0 512 512;" xml:space="preserve">
<g>
	<g>
		<path d="M415.789,66.187C373.107,23.505,316.36,0,256,0S138.894,23.505,96.212,66.187
			c-42.681,42.681-66.187,99.429-66.187,159.789V512h451.951V225.976C481.977,165.615,458.471,108.868,415.789,66.187z M391.975,482
			H120.024v-37.982h271.951V482z M391.975,414.018H120.024v-37.982h271.951V414.018z M391.975,346.036H120.024v-37.982h271.951
			V346.036z M120.024,278.054v-37.982h271.951v37.982H120.024z M451.977,482h-30V210.072H90.024V482h-30V225.976
			C60.024,117.914,147.938,30,256,30s195.976,87.914,195.976,195.976V482z"/>
	</g>
</g>
<g>
	<g>
		<path d="M165.513,89.976v90.048H346.49V89.976H165.513z M316.49,150.024H195.513v-30.048H316.49V150.024z"/>
	</g>
</g>
<g>
</g>
<g>
</g>
<g>
</g>
<g>
</g>
<g>
</g>
<g>
</g>
<g>
</g>
<g>
</g>
<g>
</g>
<g>
</g>
<g>
</g>
<g>
</g>
<g>
</g>
<g>
</g>
<g>
</g>
</svg>
