<?xml version="1.0" encoding="iso-8859-1"?>
<!-- Generator: Adobe Illustrator 19.0.0, SVG Export Plug-In . SVG Version: 6.00 Build 0)  -->
<svg version="1.1" id="Capa_1" xmlns="http://www.w3.org/2000/svg" xmlns:xlink="http://www.w3.org/1999/xlink" x="0px" y="0px"
	 viewBox="0 0 512 512" style="enable-background:new 0 0 512 512;" xml:space="preserve">
<g>
	<g>
		<path d="M437.02,74.98C388.667,26.629,324.38,0,256,0S123.333,26.629,74.98,74.98C26.629,123.333,0,187.62,0,256
			s26.629,132.667,74.98,181.02C123.333,485.371,187.62,512,256,512s132.667-26.629,181.02-74.98
			C485.371,388.667,512,324.38,512,256S485.371,123.333,437.02,74.98z M415.806,415.806c-39.13,39.13-90.085,62.13-144.806,65.692
			v-49.55h-30v49.55c-54.721-3.562-105.675-26.562-144.806-65.692C57.063,376.676,34.064,325.72,30.502,271h49.55v-30h-49.55
			c3.562-54.72,26.561-105.676,65.692-144.806c39.13-39.13,90.085-62.13,144.806-65.692v49.55h30v-49.55
			c54.721,3.562,105.675,26.562,144.806,65.692c39.131,39.131,62.13,90.086,65.692,144.806h-49.55v30h49.55
			C477.936,325.72,454.937,376.676,415.806,415.806z"/>
	</g>
</g>
<g>
	<g>
		<path d="M256,115.902L140.076,219.984v176.96h231.848v-176.96L256,115.902z M256,156.219l61.765,55.456h-123.53L256,156.219z
			 M271.024,366.944h-30.049v-54.369h30.049V366.944z M341.924,366.944h-40.9v-84.369h-90.049v84.369h-40.899V241.675h171.848
			V366.944z"/>
	</g>
</g>
<g>
</g>
<g>
</g>
<g>
</g>
<g>
</g>
<g>
</g>
<g>
</g>
<g>
</g>
<g>
</g>
<g>
</g>
<g>
</g>
<g>
</g>
<g>
</g>
<g>
</g>
<g>
</g>
<g>
</g>
</svg>
