<?xml version="1.0" encoding="iso-8859-1"?>
<!-- Generator: Adobe Illustrator 19.0.0, SVG Export Plug-In . SVG Version: 6.00 Build 0)  -->
<svg version="1.1" id="Capa_1" xmlns="http://www.w3.org/2000/svg" xmlns:xlink="http://www.w3.org/1999/xlink" x="0px" y="0px"
	 viewBox="0 0 512 512" style="enable-background:new 0 0 512 512;" xml:space="preserve">
<g>
	<g>
		<path d="M401.786,173.065V60.693h-89.971v39.942L256,55.702L0,261.79h50.217v194.508h411.567V261.79H512L401.786,173.065z
			 M341.791,90.668h30.022v58.266l-30.022-24.169V90.668z M256,94.182l170.966,137.633H85.033L256,94.182z M211.015,426.324h-70.827
			V321.787h70.827V426.324z M431.81,426.324L431.81,426.324h-190.82V291.812H110.214v134.512H80.191V261.79H431.81V426.324z"/>
	</g>
</g>
<g>
	<g>
		<path d="M271.012,291.812v104.49h130.776v-104.49H271.012z M371.813,366.327h-70.827v-44.542h70.827V366.327z"/>
	</g>
</g>
<g>
</g>
<g>
</g>
<g>
</g>
<g>
</g>
<g>
</g>
<g>
</g>
<g>
</g>
<g>
</g>
<g>
</g>
<g>
</g>
<g>
</g>
<g>
</g>
<g>
</g>
<g>
</g>
<g>
</g>
</svg>
