<?xml version="1.0" encoding="iso-8859-1"?>
<!-- Generator: Adobe Illustrator 19.0.0, SVG Export Plug-In . SVG Version: 6.00 Build 0)  -->
<svg version="1.1" id="Capa_1" xmlns="http://www.w3.org/2000/svg" xmlns:xlink="http://www.w3.org/1999/xlink" x="0px" y="0px"
	 viewBox="0 0 512 512" style="enable-background:new 0 0 512 512;" xml:space="preserve">
<g>
	<g>
		<path d="M336.334,60.005c-27.887,0-50.576,22.688-50.576,50.576s22.688,50.576,50.576,50.576s50.575-22.688,50.575-50.576
			S364.221,60.005,336.334,60.005z M336.334,131.158c-11.346,0-20.576-9.23-20.576-20.576s9.23-20.576,20.576-20.576
			c11.345,0,20.575,9.23,20.575,20.576S347.679,131.158,336.334,131.158z"/>
	</g>
</g>
<g>
	<g>
		<path d="M445.538,128.936c0.883-5.993,1.371-12.112,1.371-18.355c0-60.971-49.604-110.575-110.575-110.575
			c-59.868,0-108.772,47.825-110.523,107.276l-48.799-18.238L0,122.123v362.399l174.323-32.576l160.666,60.048L512,478.916V116.517
			L445.538,128.936z M160.667,423.979L30,448.397V147.036l130.667-24.418V423.979z M321.333,474.863l-130.667-48.836V126.174h0.001
			l38.729,14.475c14.957,62.316,72.007,108.601,91.937,123.158V474.863z M299.135,203.705
			c-19.788-21.652-43.377-55.384-43.377-93.124c0-44.429,36.146-80.575,80.576-80.575c44.43,0,80.575,36.146,80.575,80.575
			c0,37.74-23.589,71.472-43.377,93.124c-14.166,15.5-28.52,27.255-37.198,33.83C327.654,230.96,313.301,219.205,299.135,203.705z
			 M482,454.003l-130.667,24.418V263.809c17.68-12.914,64.585-50.804,85.388-102.706L482,152.642V454.003z"/>
	</g>
</g>
<g>
</g>
<g>
</g>
<g>
</g>
<g>
</g>
<g>
</g>
<g>
</g>
<g>
</g>
<g>
</g>
<g>
</g>
<g>
</g>
<g>
</g>
<g>
</g>
<g>
</g>
<g>
</g>
<g>
</g>
</svg>
