<?xml version="1.0" encoding="iso-8859-1"?>
<!-- Generator: Adobe Illustrator 19.0.0, SVG Export Plug-In . SVG Version: 6.00 Build 0)  -->
<svg version="1.1" id="Capa_1" xmlns="http://www.w3.org/2000/svg" xmlns:xlink="http://www.w3.org/1999/xlink" x="0px" y="0px"
	 viewBox="0 0 511.999 511.999" style="enable-background:new 0 0 511.999 511.999;" xml:space="preserve">
<g>
	<g>
		<path d="M371.312,0H140.686L30.031,87.816v122.735c0,67.616,21.228,132.109,61.389,186.506
			c40.161,54.397,95.544,93.674,160.163,113.581l4.417,1.36l4.417-1.36c64.619-19.907,120.002-59.184,160.163-113.581
			c40.162-54.396,61.389-118.89,61.389-186.506V87.816L371.312,0z M451.969,210.552c0,61.156-19.2,119.487-55.524,168.688
			C361.039,427.198,312.553,462.16,256,480.571c-56.554-18.411-105.04-53.373-140.446-101.331
			C79.229,330.04,60.03,271.708,60.03,210.552V102.307l91.114-72.308h209.711l91.114,72.308V210.552z"/>
	</g>
</g>
<g>
	<g>
		<path d="M256,69.748l-115.076,92.686v176.599h230.153V162.434L256,69.748z M255.999,108.268l57.542,46.346H198.457
			L255.999,108.268z M271.023,309.033h-30.047v-64.375h30.047V309.033z M341.077,309.033h-40.055v-94.374h-90.045v94.374h-40.055
			V184.612h170.155V309.033z"/>
	</g>
</g>
<g>
</g>
<g>
</g>
<g>
</g>
<g>
</g>
<g>
</g>
<g>
</g>
<g>
</g>
<g>
</g>
<g>
</g>
<g>
</g>
<g>
</g>
<g>
</g>
<g>
</g>
<g>
</g>
<g>
</g>
</svg>
