<?xml version="1.0" encoding="iso-8859-1"?>
<!-- Generator: Adobe Illustrator 19.0.0, SVG Export Plug-In . SVG Version: 6.00 Build 0)  -->
<svg version="1.1" id="Capa_1" xmlns="http://www.w3.org/2000/svg" xmlns:xlink="http://www.w3.org/1999/xlink" x="0px" y="0px"
	 viewBox="0 0 512 512" style="enable-background:new 0 0 512 512;" xml:space="preserve">
<g>
	<g>
		<path d="M441.687,45.036c-38.771,0-70.313,31.543-70.313,70.313v39.208h-45.06V115.35c0-38.771-31.542-70.313-70.313-70.313
			s-70.313,31.543-70.313,70.313v39.208h-45.06V115.35c0-38.771-31.542-70.313-70.313-70.313C31.544,45.037,0,76.579,0,115.35
			v351.614h140.627v-69.49h45.06v69.49h140.627v-69.49h45.06v69.49H512V115.35C512,76.579,480.458,45.036,441.687,45.036z
			 M30,436.964V115.35c0-22.229,18.085-40.313,40.313-40.313c22.228,0,40.313,18.085,40.313,40.313v321.614H30z M185.687,367.474
			h-45.06v-30.048h45.06V367.474z M185.687,244.606v62.819h-45.06v-62.819L185.687,244.606L185.687,244.606z M185.687,214.607
			h-45.06v-30.049h45.06V214.607z M215.686,436.964V115.35c0-22.229,18.085-40.313,40.313-40.313
			c22.228,0,40.313,18.085,40.313,40.313v321.614H215.686z M371.373,367.474h-45.06v-30.048h45.06V367.474z M371.373,244.606v62.819
			h-45.06v-62.819L371.373,244.606L371.373,244.606z M371.373,214.607h-45.06v-30.049h45.06V214.607z M482,436.964h-80.627V115.35
			c0-22.229,18.085-40.313,40.313-40.313c22.228,0,40.314,18.084,40.314,40.313V436.964z"/>
	</g>
</g>
<g>
</g>
<g>
</g>
<g>
</g>
<g>
</g>
<g>
</g>
<g>
</g>
<g>
</g>
<g>
</g>
<g>
</g>
<g>
</g>
<g>
</g>
<g>
</g>
<g>
</g>
<g>
</g>
<g>
</g>
</svg>
