<?xml version="1.0" encoding="iso-8859-1"?>
<!-- Generator: Adobe Illustrator 19.0.0, SVG Export Plug-In . SVG Version: 6.00 Build 0)  -->
<svg version="1.1" id="Capa_1" xmlns="http://www.w3.org/2000/svg" xmlns:xlink="http://www.w3.org/1999/xlink" x="0px" y="0px"
	 viewBox="0 0 512 512" style="enable-background:new 0 0 512 512;" xml:space="preserve">
<g>
	<g>
		<path d="M413.392,56.988H98.608L0,161.34v293.672h512V161.34L413.392,56.988z M111.535,86.988h288.93l61.723,65.317H49.812
			L111.535,86.988z M210.976,425.012H90.048V242.354h120.928V425.012z M482,425.012H240.976V212.354H60.048v212.658H30V182.306h452
			V425.012z"/>
	</g>
</g>
<g>
	<g>
		<path d="M271.024,212.354v182.61h180.928v-182.61H271.024z M346.488,364.964h-45.464v-46.306h45.464V364.964z M346.488,288.659
			h-45.464v-46.305h45.464V288.659z M421.952,364.964h-45.464v-46.306h45.464V364.964z M421.952,288.658h-45.464v-46.305h45.464
			V288.658z"/>
	</g>
</g>
<g>
</g>
<g>
</g>
<g>
</g>
<g>
</g>
<g>
</g>
<g>
</g>
<g>
</g>
<g>
</g>
<g>
</g>
<g>
</g>
<g>
</g>
<g>
</g>
<g>
</g>
<g>
</g>
<g>
</g>
</svg>
