<?xml version="1.0" encoding="iso-8859-1"?>
<!-- Generator: Adobe Illustrator 19.0.0, SVG Export Plug-In . SVG Version: 6.00 Build 0)  -->
<svg version="1.1" id="Capa_1" xmlns="http://www.w3.org/2000/svg" xmlns:xlink="http://www.w3.org/1999/xlink" x="0px" y="0px"
	 viewBox="0 0 511.999 511.999" style="enable-background:new 0 0 511.999 511.999;" xml:space="preserve">
<g>
	<g>
		<path d="M224.146,247.714c-17.554-17.555-46.117-17.555-63.673,0c-17.554,17.555-17.554,46.118,0,63.673
			c8.778,8.777,20.308,13.166,31.836,13.166c11.53,0,23.06-4.389,31.836-13.166C241.7,293.832,241.7,265.269,224.146,247.714z
			 M202.933,290.174c-5.857,5.856-15.39,5.858-21.247,0c-5.857-5.859-5.857-15.39,0-21.248c2.929-2.929,6.776-4.393,10.624-4.393
			c3.847,0,7.695,1.464,10.623,4.393C208.791,274.785,208.791,284.317,202.933,290.174z"/>
	</g>
</g>
<g>
	<g>
		<path d="M351.527,375.094c-8.504-8.504-19.811-13.188-31.838-13.188c-12.026,0-23.333,4.684-31.836,13.188
			c-8.504,8.503-13.188,19.81-13.188,31.836c0,12.026,4.684,23.333,13.187,31.836c8.504,8.504,19.811,13.188,31.836,13.188
			c12.027,0,23.333-4.684,31.837-13.188c8.504-8.503,13.188-19.81,13.188-31.836C364.713,394.904,360.029,383.597,351.527,375.094z
			 M330.313,417.553c-2.838,2.838-6.611,4.4-10.624,4.4s-7.786-1.563-10.624-4.4c-2.837-2.838-4.4-6.61-4.4-10.623
			c0-4.014,1.563-7.786,4.401-10.624c2.837-2.838,6.61-4.4,10.623-4.4s7.786,1.563,10.624,4.4c2.837,2.838,4.4,6.61,4.4,10.624
			C334.714,410.943,333.151,414.716,330.313,417.553z"/>
	</g>
</g>
<g>
	<g>
		
			<rect x="120.896" y="328.242" transform="matrix(0.7071 -0.7071 0.7071 0.7071 -167.7273 281.5545)" width="270.213" height="29.999"/>
	</g>
</g>
<g>
	<g>
		<path d="M256,0L57.216,182.898v329.101h397.567V182.898L256,0z M256,40.765L401.328,174.48H110.672L256,40.765z M424.783,481.999
			H87.216V204.48h337.568V481.999z"/>
	</g>
</g>
<g>
</g>
<g>
</g>
<g>
</g>
<g>
</g>
<g>
</g>
<g>
</g>
<g>
</g>
<g>
</g>
<g>
</g>
<g>
</g>
<g>
</g>
<g>
</g>
<g>
</g>
<g>
</g>
<g>
</g>
</svg>
