<?xml version="1.0" encoding="iso-8859-1"?>
<!-- Generator: Adobe Illustrator 19.0.0, SVG Export Plug-In . SVG Version: 6.00 Build 0)  -->
<svg version="1.1" id="Capa_1" xmlns="http://www.w3.org/2000/svg" xmlns:xlink="http://www.w3.org/1999/xlink" x="0px" y="0px"
	 viewBox="0 0 512 512" style="enable-background:new 0 0 512 512;" xml:space="preserve">
<g>
	<g>
		<path d="M90.88,0v512h330.24V0H90.88z M271.024,482h-30.049v-40.056h30.049V482z M391.12,482h-90.096v-70.056h-90.049V482H120.88
			V30h270.24V482z"/>
	</g>
</g>
<g>
	<g>
		<rect x="150.93" y="60.04" width="30" height="40.03"/>
	</g>
</g>
<g>
	<g>
		<rect x="210.98" y="60.04" width="30" height="40.03"/>
	</g>
</g>
<g>
	<g>
		<rect x="271.02" y="60.04" width="30" height="40.03"/>
	</g>
</g>
<g>
	<g>
		<rect x="331.07" y="60.04" width="30" height="40.03"/>
	</g>
</g>
<g>
	<g>
		<rect x="150.93" y="130.41" width="30" height="40.03"/>
	</g>
</g>
<g>
	<g>
		<rect x="210.98" y="130.41" width="30" height="40.03"/>
	</g>
</g>
<g>
	<g>
		<rect x="271.02" y="130.41" width="30" height="40.03"/>
	</g>
</g>
<g>
	<g>
		<rect x="331.07" y="130.41" width="30" height="40.03"/>
	</g>
</g>
<g>
	<g>
		<rect x="150.93" y="200.79" width="30" height="40.03"/>
	</g>
</g>
<g>
	<g>
		<rect x="210.98" y="200.79" width="30" height="40.03"/>
	</g>
</g>
<g>
	<g>
		<rect x="271.02" y="200.79" width="30" height="40.03"/>
	</g>
</g>
<g>
	<g>
		<rect x="331.07" y="200.79" width="30" height="40.03"/>
	</g>
</g>
<g>
	<g>
		<rect x="150.93" y="271.17" width="30" height="40.03"/>
	</g>
</g>
<g>
	<g>
		<rect x="210.98" y="271.17" width="30" height="40.03"/>
	</g>
</g>
<g>
	<g>
		<rect x="271.02" y="271.17" width="30" height="40.03"/>
	</g>
</g>
<g>
	<g>
		<rect x="331.07" y="271.17" width="30" height="40.03"/>
	</g>
</g>
<g>
	<g>
		<rect x="150.93" y="341.55" width="30" height="40.03"/>
	</g>
</g>
<g>
	<g>
		<rect x="210.98" y="341.55" width="30" height="40.03"/>
	</g>
</g>
<g>
	<g>
		<rect x="271.02" y="341.55" width="30" height="40.03"/>
	</g>
</g>
<g>
	<g>
		<rect x="331.07" y="341.55" width="30" height="40.03"/>
	</g>
</g>
<g>
	<g>
		<rect x="150.93" y="411.93" width="30" height="40.03"/>
	</g>
</g>
<g>
	<g>
		<rect x="331.07" y="411.93" width="30" height="40.03"/>
	</g>
</g>
<g>
</g>
<g>
</g>
<g>
</g>
<g>
</g>
<g>
</g>
<g>
</g>
<g>
</g>
<g>
</g>
<g>
</g>
<g>
</g>
<g>
</g>
<g>
</g>
<g>
</g>
<g>
</g>
<g>
</g>
</svg>
