<?xml version="1.0" encoding="iso-8859-1"?>
<!-- Generator: Adobe Illustrator 19.0.0, SVG Export Plug-In . SVG Version: 6.00 Build 0)  -->
<svg version="1.1" id="Capa_1" xmlns="http://www.w3.org/2000/svg" xmlns:xlink="http://www.w3.org/1999/xlink" x="0px" y="0px"
	 viewBox="0 0 512 512" style="enable-background:new 0 0 512 512;" xml:space="preserve">
<g>
	<g>
		<rect fill="white"  x="210.981" y="155.146" width="29.997" height="40.026"/>
	</g>
</g>
<g>
	<g>
		<rect fill="white" x="271.026" y="155.146" width="29.997" height="40.026"/>
	</g>
</g>
<g>
	<g>
		<rect fill="white" x="210.981" y="85.092" width="29.997" height="40.026"/>
	</g>
</g>
<g>
	<g>
		<rect fill="white" x="271.026" y="85.092" width="29.997" height="40.026"/>
	</g>
</g>
<g>
	<g>
		<rect fill="white" x="210.981" y="225.519" width="29.997" height="40.026"/>
	</g>
</g>
<g>
	<g>
		<rect fill="white" x="271.026" y="225.519" width="29.997" height="40.026"/>
	</g>
</g>
<g>
	<g>
		<rect fill="white" x="210.981" y="295.893" width="29.997" height="40.026"/>
	</g>
</g>
<g>
	<g>
		<rect fill="white" x="271.026" y="295.893" width="29.997" height="40.026"/>
	</g>
</g>
<g>
	<g>
		<rect fill="white" x="210.981" y="366.266" width="29.997" height="40.026"/>
	</g>
</g>
<g>
	<g>
		<rect fill="white" x="90.892" y="155.146" width="29.997" height="40.026"/>
	</g>
</g>
<g>
	<g>
		<rect fill="white" x="90.892" y="225.519" width="29.997" height="40.026"/>
	</g>
</g>
<g>
	<g>
		<rect fill="white" x="90.892" y="295.893" width="29.997" height="40.026"/>
	</g>
</g>
<g>
	<g>
		<rect fill="white" x="90.892" y="366.266" width="29.997" height="40.026"/>
	</g>
</g>
<g>
	<g>
		<rect fill="white" x="271.026" y="366.266" width="29.997" height="40.026"/>
	</g>
</g>
<g>
	<g>
		<rect fill="white" x="391.105" y="155.146" width="29.997" height="40.026"/>
	</g>
</g>
<g>
	<g>
		<rect fill="white" x="391.105" y="225.519" width="29.997" height="40.026"/>
	</g>
</g>
<g>
	<g>
		<rect fill="white" x="391.105" y="295.893" width="29.997" height="40.026"/>
	</g>
</g>
<g>
	<g>
		<rect fill="white" x="391.105" y="366.266" width="29.997" height="40.026"/>
	</g>
</g>
<g>
	<g>
		<path fill="white" d="M361.062,95.114V50.658L256,0L150.939,50.658v44.456H30.853V512h450.295V95.114H361.062z M150.938,482.003H60.85V125.112
			h90.088V482.003z M331.065,482.003H180.936V69.497L256,33.302l75.065,36.195V482.003z M451.15,482.003h-90.088V125.112h90.088
			V482.003z"/>
	</g>
</g>
<g>
</g>
<g>
</g>
<g>
</g>
<g>
</g>
<g>
</g>
<g>
</g>
<g>
</g>
<g>
</g>
<g>
</g>
<g>
</g>
<g>
</g>
<g>
</g>
<g>
</g>
<g>
</g>
<g>
</g>
</svg>
