<?xml version="1.0" encoding="iso-8859-1"?>
<!-- Generator: Adobe Illustrator 19.0.0, SVG Export Plug-In . SVG Version: 6.00 Build 0)  -->
<svg version="1.1" id="Capa_1" xmlns="http://www.w3.org/2000/svg" xmlns:xlink="http://www.w3.org/1999/xlink" x="0px" y="0px"
	 viewBox="0 0 512.001 512.001" style="enable-background:new 0 0 512.001 512.001;" xml:space="preserve">
<g>
	<g>
		<path fill="white" d="M460.8,204.799C460.8,91.873,368.927,0,256,0S51.201,91.873,51.201,204.799c0,59.681,25.667,113.477,66.536,150.943
			l-42.54,102.701l75.683,0.142l53.614,53.416l42.504-102.611c2.986,0.13,5.985,0.209,9.003,0.209c3.018,0,6.016-0.079,9.003-0.209
			l42.504,102.611l53.613-53.416l75.684-0.142l-42.542-102.701C435.133,318.276,460.8,264.481,460.8,204.799z M193.935,459.175
			l-30.651-30.537l-43.27-0.081l22.189-53.568c22,14.759,47.006,25.362,73.888,30.693L193.935,459.175z M256,379.627
			c-96.4,0-174.829-78.427-174.829-174.828S159.6,29.971,256,29.971s174.829,78.428,174.829,174.829S352.401,379.627,256,379.627z
			 M348.716,428.638l-30.651,30.537l-22.157-53.493c26.883-5.331,51.888-15.935,73.888-30.693l22.19,53.568L348.716,428.638z"/>
	</g>
</g>
<g>
	<g>
		<path fill="white" d="M256,119.824l-63.446,51.884v89.525h126.892v-89.525L256,119.824z M289.476,231.262h-66.95v-45.349L256,158.54
			l33.475,27.374V231.262z"/>
	</g>
</g>
<g>
	<g>
		<path fill="white" d="M256,59.941c-79.875,0-144.858,64.983-144.858,144.858S176.126,349.656,256,349.656s144.858-64.982,144.858-144.857
			S335.875,59.941,256,59.941z M256,319.686c-63.349,0-114.887-51.537-114.887-114.886S192.652,89.912,256,89.912
			s114.887,51.538,114.887,114.887S319.349,319.686,256,319.686z"/>
	</g>
</g>
<g>
</g>
<g>
</g>
<g>
</g>
<g>
</g>
<g>
</g>
<g>
</g>
<g>
</g>
<g>
</g>
<g>
</g>
<g>
</g>
<g>
</g>
<g>
</g>
<g>
</g>
<g>
</g>
<g>
</g>
</svg>
