<?xml version="1.0" encoding="iso-8859-1"?>
<!-- Generator: Adobe Illustrator 19.0.0, SVG Export Plug-In . SVG Version: 6.00 Build 0)  -->
<svg version="1.1" id="Capa_1" xmlns="http://www.w3.org/2000/svg" xmlns:xlink="http://www.w3.org/1999/xlink" x="0px" y="0px"
	 viewBox="0 0 512 512" style="enable-background:new 0 0 512 512;" xml:space="preserve">
<g>
	<g>
		<path d="M0,0v512h512V0H0z M415.6,30H482v93.808h-66.4V30z M415.6,153.808H482v5.016c0,18.307-14.894,33.2-33.2,33.2
			c-18.307,0-33.2-14.893-33.2-33.2V153.808z M319.2,30h66.4v93.808h-66.4V30z M319.2,153.808h66.4v5.016
			c0,18.307-14.894,33.2-33.2,33.2c-18.306,0-33.2-14.893-33.2-33.2V153.808z M289.2,30v93.808h-66.4V30H289.2z M222.8,153.808h66.4
			v5.016c0,18.307-14.894,33.2-33.2,33.2c-18.306,0-33.2-14.893-33.2-33.2V153.808z M126.4,30h66.4v93.808h-66.4V30z M126.4,153.808
			h66.4v5.016c0,18.307-14.893,33.2-33.2,33.2c-18.307,0-33.2-14.893-33.2-33.2V153.808z M30,30h66.4v93.808H30V30z M30,153.808
			h66.4v5.016c0,18.307-14.893,33.2-33.2,33.2S30,177.131,30,158.824V153.808z M210.976,482H90.048V282.072h120.928V482z M482,482
			H240.976V252.072H60.048V482H30V212.57c9.655,5.986,21.028,9.454,33.2,9.454c19.294,0,36.598-8.692,48.2-22.365
			c11.602,13.672,28.906,22.365,48.2,22.365s36.598-8.692,48.2-22.365c11.602,13.672,28.906,22.365,48.2,22.365
			s36.598-8.692,48.2-22.365c11.602,13.672,28.906,22.365,48.2,22.365s36.598-8.692,48.2-22.365
			c11.602,13.672,28.906,22.365,48.2,22.365c12.172,0,23.545-3.467,33.2-9.454V482z"/>
	</g>
</g>
<g>
	<g>
		<path d="M271.024,252.072v154.972h180.928V252.072H271.024z M421.952,377.044H301.024v-94.972h120.928V377.044z"/>
	</g>
</g>
<g>
</g>
<g>
</g>
<g>
</g>
<g>
</g>
<g>
</g>
<g>
</g>
<g>
</g>
<g>
</g>
<g>
</g>
<g>
</g>
<g>
</g>
<g>
</g>
<g>
</g>
<g>
</g>
<g>
</g>
</svg>
