<?xml version="1.0" encoding="iso-8859-1"?>
<!-- Generator: Adobe Illustrator 19.0.0, SVG Export Plug-In . SVG Version: 6.00 Build 0)  -->
<svg version="1.1" id="Capa_1" xmlns="http://www.w3.org/2000/svg" xmlns:xlink="http://www.w3.org/1999/xlink" x="0px" y="0px"
	 viewBox="0 0 512 512" style="enable-background:new 0 0 512 512;" xml:space="preserve">
<g>
	<g>
		<path d="M256,0L6.286,227.283H60.07V512h391.862V227.283h53.782L256,0z M421.935,482.003H90.066V227.283h331.868V482.003z
			 M83.808,197.286L256,40.561l172.193,156.725H83.808z"/>
	</g>
</g>
<g>
	<g>
		<path d="M316.459,339.645v-21.908c0-33.336-27.121-60.458-60.458-60.458s-60.458,27.121-60.458,60.458v21.908h-30.022v112.362
			H346.48V339.645H316.459z M225.54,317.737L225.54,317.737c0-16.796,13.665-30.461,30.461-30.461s30.461,13.665,30.461,30.461
			v21.908H225.54V317.737z M316.483,422.01H195.519v-52.368h120.964V422.01z"/>
	</g>
</g>
<g>
</g>
<g>
</g>
<g>
</g>
<g>
</g>
<g>
</g>
<g>
</g>
<g>
</g>
<g>
</g>
<g>
</g>
<g>
</g>
<g>
</g>
<g>
</g>
<g>
</g>
<g>
</g>
<g>
</g>
</svg>
