<?xml version="1.0" encoding="iso-8859-1"?>
<!-- Generator: Adobe Illustrator 19.0.0, SVG Export Plug-In . SVG Version: 6.00 Build 0)  -->
<svg version="1.1" id="Capa_1" xmlns="http://www.w3.org/2000/svg" xmlns:xlink="http://www.w3.org/1999/xlink" x="0px" y="0px"
	 viewBox="0 0 512 512" style="enable-background:new 0 0 512 512;" xml:space="preserve">
<g>
	<g>
		<path d="M256,0.001L180.073,53.44V0H90.024v116.818l-60,42.229V512h451.951V159.046L256,0.001z M120.024,30h30.048v44.555
			l-30.048,21.148V30z M256,36.687l163.601,115.145H92.399L256,36.687z M451.975,482H60.024V181.832h391.951V482z"/>
	</g>
</g>
<g>
	<g>
		<path d="M90.024,211.88V452h331.951V211.88H90.024z M391.975,422H120.024V241.88h271.951V422z"/>
	</g>
</g>
<g>
	<g>
		<path d="M256,271.928c-24.813,0-45,20.187-45,45c0,19.555,12.541,36.228,30,42.42v32.616h30v-32.616
			c17.459-6.192,30-22.865,30-42.42C301,292.115,280.813,271.928,256,271.928z M256,331.928c-8.271,0-15-6.729-15-15s6.729-15,15-15
			c8.271,0,15,6.729,15,15S264.271,331.928,256,331.928z"/>
	</g>
</g>
<g>
</g>
<g>
</g>
<g>
</g>
<g>
</g>
<g>
</g>
<g>
</g>
<g>
</g>
<g>
</g>
<g>
</g>
<g>
</g>
<g>
</g>
<g>
</g>
<g>
</g>
<g>
</g>
<g>
</g>
</svg>
