<?xml version="1.0" encoding="iso-8859-1"?>
<!-- Generator: Adobe Illustrator 19.0.0, SVG Export Plug-In . SVG Version: 6.00 Build 0)  -->
<svg version="1.1" id="Capa_1" xmlns="http://www.w3.org/2000/svg" xmlns:xlink="http://www.w3.org/1999/xlink" x="0px" y="0px"
	 viewBox="0 0 512 512" style="enable-background:new 0 0 512 512;" xml:space="preserve">
<g>
	<g>
		<path d="M256,0C142.969,0,51.011,91.957,51.011,204.987c0,39.951,10.541,80.814,31.331,121.456
			c16.375,32.01,39.125,63.963,67.618,94.972c48.206,52.463,95.817,83.89,97.821,85.201L256,512l8.219-5.383
			c2.004-1.312,49.614-32.739,97.821-85.202c28.492-31.009,51.242-62.963,67.617-94.973c20.79-40.641,31.331-81.504,31.331-121.455
			C460.989,91.957,369.032,0,256,0z M403.122,312.447c-15.064,29.536-36.161,59.199-62.706,88.164
			c-34.291,37.42-69.016,64.068-84.416,75.171c-15.399-11.103-50.124-37.751-84.417-75.171
			c-26.544-28.966-47.641-58.628-62.706-88.164C90.386,276.188,81.01,240.034,81.01,204.988c0-96.49,78.501-174.99,174.991-174.99
			s174.99,78.5,174.99,174.99C430.99,240.034,421.614,276.188,403.122,312.447z"/>
	</g>
</g>
<g>
	<g>
		<path d="M256,59.996c-79.949,0-144.992,65.043-144.992,144.992S176.052,349.981,256,349.981s144.991-65.043,144.991-144.992
			S335.949,59.996,256,59.996z M256,319.983c-63.408,0-114.994-51.585-114.994-114.994S192.593,89.995,256,89.995
			c63.407,0,114.993,51.585,114.993,114.994S319.407,319.983,256,319.983z"/>
	</g>
</g>
<g>
	<g>
		<path d="M256,119.935l-63.505,51.932v89.608h127.009v-89.608L256,119.935z M289.507,231.477h-67.013v-45.391L256,158.686
			l33.506,27.401V231.477z"/>
	</g>
</g>
<g>
</g>
<g>
</g>
<g>
</g>
<g>
</g>
<g>
</g>
<g>
</g>
<g>
</g>
<g>
</g>
<g>
</g>
<g>
</g>
<g>
</g>
<g>
</g>
<g>
</g>
<g>
</g>
<g>
</g>
</svg>
