<?xml version="1.0" encoding="iso-8859-1"?>
<!-- Generator: Adobe Illustrator 19.0.0, SVG Export Plug-In . SVG Version: 6.00 Build 0)  -->
<svg version="1.1" id="Capa_1" xmlns="http://www.w3.org/2000/svg" xmlns:xlink="http://www.w3.org/1999/xlink" x="0px" y="0px"
	 viewBox="0 0 512 512" style="enable-background:new 0 0 512 512;" xml:space="preserve">
<g>
	<g>
		<path d="M256,0l-75.883,56.066V0.306H90.123V122.56L9.635,182.029h45.529V512h401.672V182.029h45.529L256,0z M120.105,30.288
			h30.03v47.931l-30.03,22.188V30.288z M256,37.279l155.332,114.768H100.668L256,37.279z M85.146,482.018V182.029h341.708v299.989
			H85.146z"/>
	</g>
</g>
<g>
	<g>
		<path d="M270.991,347.039v104.997h125.881V347.039H270.991z M366.89,422.054h-65.917v-45.033h65.917V422.054z"/>
	</g>
</g>
<g>
	<g>
		<path d="M241.009,212.059h-125.88v104.997H241.01L241.009,212.059L241.009,212.059z M211.027,287.074H145.11v-45.033h65.917
			V287.074z"/>
	</g>
</g>
<g>
	<g>
		<path d="M270.991,212.059v104.997h125.881V212.059H270.991z M366.89,287.074h-65.917v-45.033h65.917V287.074z"/>
	</g>
</g>
<g>
	<g>
		<path d="M115.129,347.039v104.997h125.88V347.039H115.129z M211.028,422.054h-65.917v-45.033h65.917V422.054z"/>
	</g>
</g>
<g>
</g>
<g>
</g>
<g>
</g>
<g>
</g>
<g>
</g>
<g>
</g>
<g>
</g>
<g>
</g>
<g>
</g>
<g>
</g>
<g>
</g>
<g>
</g>
<g>
</g>
<g>
</g>
<g>
</g>
</svg>
