<?xml version="1.0" encoding="iso-8859-1"?>
<!-- Generator: Adobe Illustrator 19.0.0, SVG Export Plug-In . SVG Version: 6.00 Build 0)  -->
<svg version="1.1" id="Capa_1" xmlns="http://www.w3.org/2000/svg" xmlns:xlink="http://www.w3.org/1999/xlink" x="0px" y="0px"
	 viewBox="0 0 512 512" style="enable-background:new 0 0 512 512;" xml:space="preserve">
<g>
	<g>
		<path d="M301.024,220.176v-30.048h98.148l52.031-65.04l-52.031-65.04h-98.148V0h-90.049v60.048H63.521l39.022,65.04l-39.022,65.04
			h147.455v30.048h-98.148l-52.031,65.04l52.031,65.04h98.148V512h90.049V350.256H448.48l-39.022-65.04l39.022-65.04H301.024z
			 M240.976,30h30.049v30.048h-30.049V30z M116.505,160.128l21.024-35.04l-21.024-35.04h268.25l28.031,35.04l-28.031,35.04H116.505z
			 M271.025,190.128v30.048h-30.049v-30.048H271.025z M271.024,482h-30.049V350.256h30.049V482z M395.495,320.256h-268.25
			l-28.031-35.04l28.031-35.04h268.25l-21.024,35.04L395.495,320.256z"/>
	</g>
</g>
<g>
</g>
<g>
</g>
<g>
</g>
<g>
</g>
<g>
</g>
<g>
</g>
<g>
</g>
<g>
</g>
<g>
</g>
<g>
</g>
<g>
</g>
<g>
</g>
<g>
</g>
<g>
</g>
<g>
</g>
</svg>
