<?xml version="1.0" encoding="iso-8859-1"?>
<!-- Generator: Adobe Illustrator 19.0.0, SVG Export Plug-In . SVG Version: 6.00 Build 0)  -->
<svg version="1.1" id="Capa_1" xmlns="http://www.w3.org/2000/svg" xmlns:xlink="http://www.w3.org/1999/xlink" x="0px" y="0px"
	 viewBox="0 0 512 512" style="enable-background:new 0 0 512 512;" xml:space="preserve">
<g>
	<g>
		<path d="M481.976,67.554V37.518h-30v30.036h-30.023v383.117l45.023,45.024L512,450.671V67.554H481.976z M482,438.245
			l-15.024,15.024l-15.023-15.024V157.602H482V438.245z M482,127.602h-30.048V97.554H482V127.602z"/>
	</g>
</g>
<g>
	<g>
		<path d="M0,0v512h290.117l101.787-101.787V0H0z M298.904,460.787V419h41.786L298.904,460.787z M361.904,389h-93v93H30V30h331.904
			V389z"/>
	</g>
</g>
<g>
	<g>
		<rect x="60.04" y="120.1" width="271.83" height="30"/>
	</g>
</g>
<g>
	<g>
		<rect x="60.04" y="60.05" width="105.89" height="30"/>
	</g>
</g>
<g>
	<g>
		<rect x="60.04" y="180.14" width="271.83" height="30"/>
	</g>
</g>
<g>
	<g>
		<rect x="60.04" y="240.19" width="271.83" height="30"/>
	</g>
</g>
<g>
	<g>
		<polygon points="135.715,397.591 101.377,417.591 74.592,401.989 59.492,427.912 101.375,452.309 135.715,432.309 
			162.505,447.912 177.604,421.988 		"/>
	</g>
</g>
<g>
</g>
<g>
</g>
<g>
</g>
<g>
</g>
<g>
</g>
<g>
</g>
<g>
</g>
<g>
</g>
<g>
</g>
<g>
</g>
<g>
</g>
<g>
</g>
<g>
</g>
<g>
</g>
<g>
</g>
</svg>
