<?xml version="1.0" encoding="iso-8859-1"?>
<!-- Generator: Adobe Illustrator 19.0.0, SVG Export Plug-In . SVG Version: 6.00 Build 0)  -->
<svg version="1.1" id="Capa_1" xmlns="http://www.w3.org/2000/svg" xmlns:xlink="http://www.w3.org/1999/xlink" x="0px" y="0px"
	 viewBox="0 0 512 512" style="enable-background:new 0 0 512 512;" xml:space="preserve">
<g>
	<g>
		<path d="M306.984,60.005c-79.96,0-145.012,65.051-145.012,145.012s65.052,145.012,145.012,145.012s145.011-65.051,145.011-145.012
			S386.944,60.005,306.984,60.005z M306.984,320.026c-63.416,0-115.01-51.592-115.01-115.01s51.593-115.01,115.01-115.01
			s115.009,51.592,115.009,115.01S370.4,320.026,306.984,320.026z"/>
	</g>
</g>
<g>
	<g>
		<path d="M306.984,0C193.936,0,101.967,91.97,101.967,205.017c0,40.265,11.676,77.851,31.808,109.564L0,448.355L63.645,512
			l133.773-133.774c31.714,20.132,69.3,31.808,109.565,31.808C420.03,410.033,512,318.064,512,205.016S420.03,0,306.984,0z
			 M63.645,469.569l-21.215-21.215l109.431-109.431c6.549,7.575,13.64,14.667,21.215,21.215L63.645,469.569z M306.984,380.031
			c-96.503,0-175.015-78.511-175.015-175.015S210.481,30.002,306.984,30.002s175.014,78.511,175.014,175.015
			S403.487,380.031,306.984,380.031z"/>
	</g>
</g>
<g>
	<g>
		<path d="M306.984,119.951L243.47,171.89v89.622h127.027V171.89L306.984,119.951z M340.495,231.509h-67.022v-45.397l33.511-27.404
			l33.511,27.404V231.509z"/>
	</g>
</g>
<g>
</g>
<g>
</g>
<g>
</g>
<g>
</g>
<g>
</g>
<g>
</g>
<g>
</g>
<g>
</g>
<g>
</g>
<g>
</g>
<g>
</g>
<g>
</g>
<g>
</g>
<g>
</g>
<g>
</g>
</svg>
