<?xml version="1.0" encoding="iso-8859-1"?>
<!-- Generator: Adobe Illustrator 19.0.0, SVG Export Plug-In . SVG Version: 6.00 Build 0)  -->
<svg version="1.1" id="Capa_1" xmlns="http://www.w3.org/2000/svg" xmlns:xlink="http://www.w3.org/1999/xlink" x="0px" y="0px"
	 viewBox="0 0 512 512" style="enable-background:new 0 0 512 512;" xml:space="preserve">
<g>
	<g>
		<path fill="white" d="M0,30.024v451.952h512V30.024H0z M80.333,451.976H30V271h50.333V451.976z M80.333,241H30v-75.488h50.333V241z
			 M321.334,451.976H190.667v-70.472h-30v70.472h-50.333V271h50.333v70.472h30V271h130.667V451.976z M110.333,241v-75.488h50.333
			V241H110.333z M482,451.976h-50.333v-75.488H482V451.976z M482,241h-45.317v30H482v75.488h-80.333v105.488h-50.334V271h45.317v-30
			H190.667V135.512H30V60.024h130.667v35.444h30V60.024h130.667v140.932h30v-35.444H482V241z M482,135.512H351.333V60.024H482
			V135.512z"/>
	</g>
</g>
<g>
</g>
<g>
</g>
<g>
</g>
<g>
</g>
<g>
</g>
<g>
</g>
<g>
</g>
<g>
</g>
<g>
</g>
<g>
</g>
<g>
</g>
<g>
</g>
<g>
</g>
<g>
</g>
<g>
</g>
</svg>
