<?xml version="1.0" encoding="iso-8859-1"?>
<!-- Generator: Adobe Illustrator 19.0.0, SVG Export Plug-In . SVG Version: 6.00 Build 0)  -->
<svg version="1.1" id="Capa_1" xmlns="http://www.w3.org/2000/svg" xmlns:xlink="http://www.w3.org/1999/xlink" x="0px" y="0px"
	 viewBox="0 0 512 512" style="enable-background:new 0 0 512 512;" xml:space="preserve">
<g>
	<g>
		<path d="M421.928,239.999v-74.071C421.928,74.435,347.493,0,256,0S90.072,74.435,90.072,165.928v74.071H30.024V512h451.952
			V239.999H421.928z M120.072,165.928C120.072,90.977,181.049,30,256,30s135.928,60.977,135.928,135.928v74.071h-30v-74.071
			C361.928,107.519,314.409,60,256,60s-105.928,47.519-105.928,105.928v74.071h-30V165.928z M331.928,165.928v74.071H180.072
			v-74.071C180.072,124.061,214.133,90,256,90S331.928,124.061,331.928,165.928z M451.976,482H60.024V269.999h391.952V482z"/>
	</g>
</g>
<g>
	<g>
		<path d="M324.277,355.702L256,299.866l-68.277,55.835v96.25h136.555L324.277,355.702L324.277,355.702z M294.277,421.952h-76.555
			v-52.03L256,338.62l38.277,31.302V421.952z"/>
	</g>
</g>
<g>
</g>
<g>
</g>
<g>
</g>
<g>
</g>
<g>
</g>
<g>
</g>
<g>
</g>
<g>
</g>
<g>
</g>
<g>
</g>
<g>
</g>
<g>
</g>
<g>
</g>
<g>
</g>
<g>
</g>
</svg>
