<?xml version="1.0" encoding="iso-8859-1"?>
<!-- Generator: Adobe Illustrator 19.0.0, SVG Export Plug-In . SVG Version: 6.00 Build 0)  -->
<svg version="1.1" id="Capa_1" xmlns="http://www.w3.org/2000/svg" xmlns:xlink="http://www.w3.org/1999/xlink" x="0px" y="0px"
	 viewBox="0 0 512 512" style="enable-background:new 0 0 512 512;" xml:space="preserve">
<g>
	<g>
		<path d="M0,50.04v411.92h512V50.04H0z M482,431.96H30V200.136h452V431.96z M482,170.136H30V80.04h452V170.136z"/>
	</g>
</g>
<g>
	<g>
		<rect x="60.04" y="110.09" width="30.02" height="30"/>
	</g>
</g>
<g>
	<g>
		<rect x="120.08" y="110.09" width="30.02" height="30"/>
	</g>
</g>
<g>
	<g>
		<rect x="180.13" y="110.09" width="30.02" height="30"/>
	</g>
</g>
<g>
	<g>
		<path d="M164.699,239.819l-68.277,55.835v96.25h136.554v-96.25L164.699,239.819z M126.422,361.904v-52.029l38.276-31.302
			l38.277,31.302v52.029H126.422z"/>
	</g>
</g>
<g>
	<g>
		<rect x="278.02" y="361.9" width="135.92" height="30"/>
	</g>
</g>
<g>
	<g>
		<rect x="278.02" y="301.05" width="135.92" height="30"/>
	</g>
</g>
<g>
	<g>
		<rect x="278.02" y="240.19" width="135.92" height="30"/>
	</g>
</g>
<g>
</g>
<g>
</g>
<g>
</g>
<g>
</g>
<g>
</g>
<g>
</g>
<g>
</g>
<g>
</g>
<g>
</g>
<g>
</g>
<g>
</g>
<g>
</g>
<g>
</g>
<g>
</g>
<g>
</g>
</svg>
