<?xml version="1.0" encoding="iso-8859-1"?>
<!-- Generator: Adobe Illustrator 19.0.0, SVG Export Plug-In . SVG Version: 6.00 Build 0)  -->
<svg version="1.1" id="Capa_1" xmlns="http://www.w3.org/2000/svg" xmlns:xlink="http://www.w3.org/1999/xlink" x="0px" y="0px"
	 viewBox="0 0 512 512" style="enable-background:new 0 0 512 512;" xml:space="preserve">
<g>
	<g>
		<path d="M70.325,0v512h371.35V0H70.325z M351.627,482h-50.603V371.35h50.603V482z M411.675,482h-30.048V341.35H271.024V482
			H100.325V30h311.35V482z"/>
	</g>
</g>
<g>
	<g>
		<path d="M240.976,341.35H130.374v110.603h110.603L240.976,341.35L240.976,341.35z M210.976,421.952h-50.603V371.35h50.603V421.952
			z"/>
	</g>
</g>
<g>
	<g>
		<path d="M240.976,200.698H130.374v110.604h110.603L240.976,200.698L240.976,200.698z M210.976,281.302h-50.603v-50.604h50.603
			V281.302z"/>
	</g>
</g>
<g>
	<g>
		<path d="M240.976,60.048H130.374V170.65h110.603L240.976,60.048L240.976,60.048z M210.976,140.65h-50.603V90.048h50.603V140.65z"
			/>
	</g>
</g>
<g>
	<g>
		<path d="M381.626,200.698H271.024v110.604h110.603L381.626,200.698L381.626,200.698z M351.626,281.302h-50.603v-50.604h50.603
			V281.302z"/>
	</g>
</g>
<g>
	<g>
		<path d="M381.626,60.048H271.024V170.65h110.603L381.626,60.048L381.626,60.048z M351.626,140.65h-50.603V90.048h50.603V140.65z"
			/>
	</g>
</g>
<g>
</g>
<g>
</g>
<g>
</g>
<g>
</g>
<g>
</g>
<g>
</g>
<g>
</g>
<g>
</g>
<g>
</g>
<g>
</g>
<g>
</g>
<g>
</g>
<g>
</g>
<g>
</g>
<g>
</g>
</svg>
