<?xml version="1.0" encoding="iso-8859-1"?>
<!-- Generator: Adobe Illustrator 19.0.0, SVG Export Plug-In . SVG Version: 6.00 Build 0)  -->
<svg version="1.1" id="Capa_1" xmlns="http://www.w3.org/2000/svg" xmlns:xlink="http://www.w3.org/1999/xlink" x="0px" y="0px"
	 viewBox="0 0 512.001 512.001" style="enable-background:new 0 0 512.001 512.001;" xml:space="preserve">
<g>
	<g>
		<path d="M454.766,83.921h-88.619L256,0L145.854,83.921H57.235L0,165.611v346.39h512v-346.39L454.766,83.921z M72.846,113.921
			h63.07v41.422H43.826L72.846,113.921z M135.917,482.001H30v-169.04h105.916V482.001z M135.917,282.961H30v-97.618h105.917V282.961
			z M165.917,106.35L256,37.715l90.084,68.635v315.603h-30.048V281.841H195.964v140.112h-30.048V106.35z M286.037,311.841v110.112
			h-60.072V311.841H286.037z M346.086,482.001H165.917v-30.048h180.168V482.001z M376.084,113.921h63.07l29.022,41.422h-92.092
			V113.921z M482,482.001H376.085v-169.04H482V482.001z M482,282.961H376.085v-97.618H482V282.961z"/>
	</g>
</g>
<g>
	<g>
		<path d="M256.001,101.697c-33.104,0-60.036,26.932-60.036,60.036v90.06h120.072v-90.06
			C316.037,128.629,289.105,101.697,256.001,101.697z M286.038,221.793L286.038,221.793h-60.072v-60.06
			c0-16.562,13.474-30.036,30.036-30.036s30.036,13.475,30.036,30.036V221.793z"/>
	</g>
</g>
<g>
</g>
<g>
</g>
<g>
</g>
<g>
</g>
<g>
</g>
<g>
</g>
<g>
</g>
<g>
</g>
<g>
</g>
<g>
</g>
<g>
</g>
<g>
</g>
<g>
</g>
<g>
</g>
<g>
</g>
</svg>
