<?xml version="1.0" encoding="iso-8859-1"?>
<!-- Generator: Adobe Illustrator 19.0.0, SVG Export Plug-In . SVG Version: 6.00 Build 0)  -->
<svg version="1.1" id="Capa_1" xmlns="http://www.w3.org/2000/svg" xmlns:xlink="http://www.w3.org/1999/xlink" x="0px" y="0px"
	 viewBox="0 0 512 512" style="enable-background:new 0 0 512 512;" xml:space="preserve">
<g>
	<g>
		<path d="M393.648,89.721c-26.126,0-50.297,8.516-69.897,22.908l-119.427-81.53L0,170.589v310.313h408.648v-60.048h30.024V317.518
			C481.664,299.766,512,257.398,512,208.073C512,142.813,458.907,89.721,393.648,89.721z M204.324,67.422l97.246,66.388
			c-7.214,8.927-13.157,18.918-17.555,29.7H63.576L204.324,67.422z M246.582,450.901h-84.516V328.909h84.516V450.901z
			 M378.648,450.901H276.582V298.909H132.066v151.992H30V193.51h246.193c-0.588,4.773-0.896,9.633-0.896,14.563
			c0,49.326,30.336,91.693,73.327,109.445v103.335h30.024V450.901z M378.624,390.854v-65.378c4.921,0.626,9.936,0.949,15.024,0.949
			c5.088,0,10.103-0.323,15.024-0.949v65.378H378.624z M393.648,296.424c-48.717,0-88.352-39.635-88.352-88.352
			s39.635-88.352,88.352-88.352S482,159.356,482,208.073S442.365,296.424,393.648,296.424z"/>
	</g>
</g>
<g>
	<g>
		<path d="M393.648,149.721c-32.175,0-58.352,26.177-58.352,58.352c0,32.175,26.177,58.352,58.352,58.352S452,240.247,452,208.073
			S425.823,149.721,393.648,149.721z M393.648,236.424c-15.633,0-28.352-12.719-28.352-28.352s12.719-28.352,28.352-28.352
			S422,192.44,422,208.073S409.281,236.424,393.648,236.424z"/>
	</g>
</g>
<g>
</g>
<g>
</g>
<g>
</g>
<g>
</g>
<g>
</g>
<g>
</g>
<g>
</g>
<g>
</g>
<g>
</g>
<g>
</g>
<g>
</g>
<g>
</g>
<g>
</g>
<g>
</g>
<g>
</g>
</svg>
