<?xml version="1.0" encoding="iso-8859-1"?>
<!-- Generator: Adobe Illustrator 19.0.0, SVG Export Plug-In . SVG Version: 6.00 Build 0)  -->
<svg version="1.1" id="Capa_1" xmlns="http://www.w3.org/2000/svg" xmlns:xlink="http://www.w3.org/1999/xlink" x="0px" y="0px"
	 viewBox="0 0 512 512" style="enable-background:new 0 0 512 512;" xml:space="preserve">
<g>
	<g>
		<path d="M403.945,0h-295.89L0,129.665V512h512V129.665L403.945,0z M150.928,482H30V150.096h120.928V482z M240.976,482v-83.936
			c0-8.284,6.739-15.024,15.023-15.024s15.024,6.74,15.024,15.024V482H240.976z M331.073,482h-30.048v-83.936
			c-0.001-24.826-20.199-45.024-45.025-45.024s-45.023,20.198-45.023,45.024V482h-30.049V192.888h150.145V482z M180.928,162.888
			v-22.361l42.065-50.479h66.014l42.065,50.479v22.361H180.928z M303.058,60.048h-94.115l-50.04,60.048H47.026L122.105,30h267.789
			l75.08,90.096H353.098L303.058,60.048z M482,482H361.072V150.096H482V482z"/>
	</g>
</g>
<g>
	<g>
		<path d="M301.024,267.96c0-24.826-20.198-45.024-45.024-45.024s-45.023,20.198-45.023,45.024v55.032h90.048V267.96H301.024z
			 M240.976,292.992V267.96c0-8.284,6.739-15.024,15.023-15.024s15.024,6.74,15.024,15.024v25.032H240.976z"/>
	</g>
</g>
<g>
</g>
<g>
</g>
<g>
</g>
<g>
</g>
<g>
</g>
<g>
</g>
<g>
</g>
<g>
</g>
<g>
</g>
<g>
</g>
<g>
</g>
<g>
</g>
<g>
</g>
<g>
</g>
<g>
</g>
</svg>
