<?xml version="1.0" encoding="iso-8859-1"?>
<!-- Generator: Adobe Illustrator 19.0.0, SVG Export Plug-In . SVG Version: 6.00 Build 0)  -->
<svg version="1.1" id="Capa_1" xmlns="http://www.w3.org/2000/svg" xmlns:xlink="http://www.w3.org/1999/xlink" x="0px" y="0px"
	 viewBox="0 0 512 512" style="enable-background:new 0 0 512 512;" xml:space="preserve">
<g>
	<g>
		<path d="M428.863,83.141c-17.555-17.555-46.119-17.555-63.674,0s-17.555,46.118,0,63.673c8.777,8.777,20.308,13.166,31.837,13.166
			s23.06-4.389,31.837-13.166C446.418,129.259,446.418,100.696,428.863,83.141z M407.65,125.601c-5.857,5.857-15.391,5.857-21.248,0
			s-5.857-15.389,0-21.247c2.929-2.929,6.776-4.394,10.624-4.394c3.848,0,7.695,1.465,10.624,4.394
			C413.508,110.212,413.508,119.743,407.65,125.601z"/>
	</g>
</g>
<g>
	<g>
		<path d="M478.36,196.312c44.848-44.849,44.848-117.821,0.001-162.669C456.667,11.947,427.781,0,397.026,0
			c-30.754,0-59.64,11.947-81.336,33.644c-1.238,1.239-2.451,2.51-3.637,3.81c-21.136-6.967-44.076-7.672-65.723-1.873
			c-29.64,7.941-54.431,26.981-69.808,53.614c-15.376,26.631-19.47,57.621-11.527,87.261c4.513,16.844,12.817,32.434,24.179,45.531
			L0.004,411.157V512h100.843l189.172-189.172c13.099,11.363,28.689,19.667,45.531,24.18c9.935,2.662,19.913,3.933,29.742,3.932
			c50.779-0.003,97.378-33.938,111.131-85.267c5.801-21.645,5.096-44.587-1.872-65.724
			C475.851,198.764,477.121,197.551,478.36,196.312z M236.168,334.253l-29.208-29.209l-21.213,21.213l29.208,29.209l-28.324,28.324
			l-29.208-29.208l-21.213,21.213l29.208,29.208l-28.324,28.324l-29.208-29.208l-21.213,21.213l29.208,29.208L88.421,482H30.004
			v-58.417l181.687-181.687c12.394,8.355,26.353,14.29,41.042,17.374c3.084,14.689,9.019,28.648,17.375,41.043L236.168,334.253z
			 M442.982,201.392c8.021,17.941,9.563,37.484,4.463,56.516c-12.135,45.285-58.849,72.254-104.132,60.122
			c-14.371-3.85-27.508-11.426-37.992-21.909c-13.785-13.785-22.511-32.086-24.57-51.531l-1.278-12.059l-12.059-1.278
			c-19.446-2.06-37.747-10.786-51.532-24.57v-0.001c-10.48-10.479-18.057-23.616-21.907-37.99
			c-5.869-21.899-2.84-44.805,8.529-64.496c11.37-19.692,29.691-33.769,51.591-39.636c7.342-1.968,14.758-2.946,22.13-2.946
			c11.74,0,23.367,2.483,34.388,7.409l10.982,4.909l7.177-9.654c2.471-3.324,5.208-6.494,8.134-9.421
			C352.934,38.827,374.285,30,397.026,30c22.742,0,44.094,8.827,60.122,24.855c33.149,33.151,33.149,87.092,0,120.241
			c-2.929,2.928-6.099,5.665-9.422,8.137l-9.652,7.177L442.982,201.392z"/>
	</g>
</g>
<g>
</g>
<g>
</g>
<g>
</g>
<g>
</g>
<g>
</g>
<g>
</g>
<g>
</g>
<g>
</g>
<g>
</g>
<g>
</g>
<g>
</g>
<g>
</g>
<g>
</g>
<g>
</g>
<g>
</g>
</svg>
