<?xml version="1.0" encoding="iso-8859-1"?>
<!-- Generator: Adobe Illustrator 19.0.0, SVG Export Plug-In . SVG Version: 6.00 Build 0)  -->
<svg version="1.1" id="Capa_1" xmlns="http://www.w3.org/2000/svg" xmlns:xlink="http://www.w3.org/1999/xlink" x="0px" y="0px"
	 viewBox="0 0 512 512" style="enable-background:new 0 0 512 512;" xml:space="preserve">
<g>
	<g>
		<path d="M421.977,108.729V0h-90.048v49.975l-75.928-49.54L30.024,147.877V512h451.951V147.877L421.977,108.729z M361.929,30
			h30.048v59.155L361.929,69.55V30z M256.001,36.255L416.537,141H95.464L256.001,36.255z M451.975,482H60.024V171h391.951V482z"/>
	</g>
</g>
<g>
	<g>
		<path d="M263.446,311.5h-14.889c-13.903,0-25.214-11.311-25.214-25.214c0-13.903,11.31-25.214,25.214-25.214h14.889
			c13.903,0,25.214,11.311,25.214,25.214h30c0-27.881-20.777-50.987-47.658-54.684v-30.566h-30v30.566
			c-26.882,3.697-47.658,26.803-47.658,54.684c0,30.445,24.769,55.214,55.214,55.214h14.889c13.903,0,25.214,11.311,25.214,25.214
			c0,13.903-11.311,25.214-25.214,25.214h-14.889c-13.903,0-25.214-11.311-25.214-25.214h-30c0,27.881,20.777,50.987,47.658,54.684
			v30.566h30v-30.566c26.882-3.697,47.658-26.803,47.658-54.684C318.66,336.269,293.891,311.5,263.446,311.5z"/>
	</g>
</g>
<g>
</g>
<g>
</g>
<g>
</g>
<g>
</g>
<g>
</g>
<g>
</g>
<g>
</g>
<g>
</g>
<g>
</g>
<g>
</g>
<g>
</g>
<g>
</g>
<g>
</g>
<g>
</g>
<g>
</g>
</svg>
