<?xml version="1.0" encoding="iso-8859-1"?>
<!-- Generator: Adobe Illustrator 19.0.0, SVG Export Plug-In . SVG Version: 6.00 Build 0)  -->
<svg version="1.1" id="Capa_1" xmlns="http://www.w3.org/2000/svg" xmlns:xlink="http://www.w3.org/1999/xlink" x="0px" y="0px"
	 viewBox="0 0 512 512" style="enable-background:new 0 0 512 512;" xml:space="preserve">
<g>
	<g>
		<path d="M416.667,289.13l-80.333,72.128L256,289.13l-80.333,72.128L95.333,289.13L0,374.725V512h512V374.725L416.667,289.13z
			 M95.333,329.448l41.175,36.968H54.159L95.333,329.448z M160.667,482H30v-85.584h130.667V482z M256,329.448l41.174,36.968h-82.349
			L256,329.448z M321.333,482H190.667v-85.584h130.666V482z M416.667,329.448l41.174,36.968h-82.348L416.667,329.448z M482,482
			H351.333v-85.584H482V482z"/>
	</g>
</g>
<g>
	<g>
		<path d="M256,0c-57.91,0-105.024,47.113-105.024,105.023c0,85.138,92.853,146.937,96.806,149.526l8.219,5.384l8.219-5.384
			c3.953-2.589,96.804-64.388,96.804-149.525C361.024,47.113,313.911,0,256,0z M255.979,223.507
			c-8.069-6.142-21.003-16.806-33.946-30.891c-33.934-36.931-41.057-68.018-41.057-87.594C180.976,63.655,214.632,30,256,30
			c41.368,0,75.023,33.655,75.023,75.023C331.023,160.768,276.988,207.462,255.979,223.507z"/>
	</g>
</g>
<g>
	<g>
		<path d="M256,60c-24.826,0-45.024,20.198-45.024,45.024s20.198,45.024,45.024,45.024s45.024-20.197,45.024-45.023
			S280.826,60,256,60z M256,120.047c-8.284,0-15.024-6.739-15.024-15.023S247.716,90,256,90s15.024,6.74,15.024,15.024
			S264.284,120.047,256,120.047z"/>
	</g>
</g>
<g>
</g>
<g>
</g>
<g>
</g>
<g>
</g>
<g>
</g>
<g>
</g>
<g>
</g>
<g>
</g>
<g>
</g>
<g>
</g>
<g>
</g>
<g>
</g>
<g>
</g>
<g>
</g>
<g>
</g>
</svg>
