<?xml version="1.0" encoding="iso-8859-1"?>
<!-- Generator: Adobe Illustrator 19.0.0, SVG Export Plug-In . SVG Version: 6.00 Build 0)  -->
<svg version="1.1" id="Capa_1" xmlns="http://www.w3.org/2000/svg" xmlns:xlink="http://www.w3.org/1999/xlink" x="0px" y="0px"
	 viewBox="0 0 512 512" style="enable-background:new 0 0 512 512;" xml:space="preserve">
<g>
	<g>
		<path d="M512,60.024v-30H271V0h-30v30.024H0v30h30.024V331.88H0v30h219.787l-91.151,91.151l21.213,21.213L241,383.093V512h30
			V383.093l91.151,91.151l21.213-21.213l-91.151-91.151H512v-30h-30.024V60.024H512z M451.976,331.88H60.024V60.024h391.952V331.88z
			"/>
	</g>
</g>
<g>
	<g>
		<path d="M158.349,119.723l-68.277,55.835v96.25h136.554v-96.25L158.349,119.723z M196.626,241.807h-76.555v-52.029h0.001
			l38.277-31.302l38.277,31.302V241.807z"/>
	</g>
</g>
<g>
	<g>
		<rect x="285.36" y="241.81" width="136.58" height="30"/>
	</g>
</g>
<g>
	<g>
		<rect x="285.36" y="180.95" width="136.58" height="30"/>
	</g>
</g>
<g>
	<g>
		<rect x="285.36" y="120.1" width="136.58" height="30"/>
	</g>
</g>
<g>
</g>
<g>
</g>
<g>
</g>
<g>
</g>
<g>
</g>
<g>
</g>
<g>
</g>
<g>
</g>
<g>
</g>
<g>
</g>
<g>
</g>
<g>
</g>
<g>
</g>
<g>
</g>
<g>
</g>
</svg>
