<?xml version="1.0" encoding="iso-8859-1"?>
<!-- Generator: Adobe Illustrator 19.0.0, SVG Export Plug-In . SVG Version: 6.00 Build 0)  -->
<svg version="1.1" id="Capa_1" xmlns="http://www.w3.org/2000/svg" xmlns:xlink="http://www.w3.org/1999/xlink" x="0px" y="0px"
	 viewBox="0 0 512 512" style="enable-background:new 0 0 512 512;" xml:space="preserve">
<g>
	<g>
		<path d="M312.334,328.087l-43.678,43.678L140.233,243.343l43.678-43.678L82.104,97.857l-58.5,58.499
			c-31.471,31.472-31.471,82.68,0,114.151l217.888,217.888c15.737,15.738,36.403,23.606,57.075,23.604
			c20.667-0.002,41.342-7.87,57.075-23.604l58.5-58.5L312.334,328.087z M334.429,467.182c-19.776,19.772-51.95,19.773-71.722,0
			L44.818,249.294c-19.772-19.774-19.772-51.949,0-71.722l37.286-37.286l59.379,59.379l-43.678,43.678l170.852,170.852
			l43.678-43.678l59.379,59.379L334.429,467.182z"/>
	</g>
</g>
<g>
	<g>
		<path d="M366.99,0c-79.959,0-145.011,65.052-145.011,145.011s65.052,145.01,145.011,145.01c79.959,0,145.01-65.051,145.01-145.01
			S446.949,0,366.99,0z M366.99,260.018c-63.416,0-115.009-51.593-115.009-115.008c0-63.416,51.593-115.008,115.009-115.008
			c63.416,0,115.008,51.593,115.008,115.008C481.998,208.425,430.406,260.018,366.99,260.018z"/>
	</g>
</g>
<g>
	<g>
		<path d="M366.99,59.944l-63.513,51.94v89.62h127.025v-89.62L366.99,59.944z M400.501,171.502H333.48v-45.396l33.51-27.404
			l33.51,27.404V171.502z"/>
	</g>
</g>
<g>
</g>
<g>
</g>
<g>
</g>
<g>
</g>
<g>
</g>
<g>
</g>
<g>
</g>
<g>
</g>
<g>
</g>
<g>
</g>
<g>
</g>
<g>
</g>
<g>
</g>
<g>
</g>
<g>
</g>
</svg>
