<?xml version="1.0" encoding="iso-8859-1"?>
<!-- Generator: Adobe Illustrator 19.0.0, SVG Export Plug-In . SVG Version: 6.00 Build 0)  -->
<svg version="1.1" id="Capa_1" xmlns="http://www.w3.org/2000/svg" xmlns:xlink="http://www.w3.org/1999/xlink" x="0px" y="0px"
	 viewBox="0 0 512 512" style="enable-background:new 0 0 512 512;" xml:space="preserve">
<g>
	<g>
		<path fill="white" d="M393.649,64.841c-33.742,0-64.23,14.195-85.809,36.925L204.324,31.099L0,170.589v310.313h408.648V348.243
			c9.771-7.131,28.689-21.977,47.721-42.689C492.763,265.946,512,223.635,512,183.193C512,117.934,458.908,64.841,393.649,64.841z
			 M204.324,67.422l85.758,58.546c-6.371,11.485-10.885,24.134-13.139,37.542H63.576L204.324,67.422z M246.583,450.901h-84.517
			V328.909h84.517V450.901z M378.649,450.901H276.583V298.909H132.066v151.992H30V193.51h245.713
			c6.088,78.517,79.776,137.929,102.936,154.754V450.901z M434.737,284.758c-15.773,17.251-31.753,30.225-41.088,37.246
			c-9.335-7.021-25.315-19.995-41.088-37.246c-21.562-23.582-47.264-60.346-47.264-101.564c0-48.717,39.635-88.352,88.352-88.352
			S482,134.477,482,183.193C482,224.411,456.298,261.175,434.737,284.758z"/>
	</g>
</g>
<g>
	<g>
		<path fill="white" d="M393.649,124.841c-32.176,0-58.353,26.177-58.353,58.353c0,32.176,26.177,58.353,58.353,58.353
			c32.175,0,58.351-26.177,58.351-58.353C452,151.018,425.824,124.841,393.649,124.841z M393.649,211.546
			c-15.634,0-28.353-12.719-28.353-28.353c0-15.634,12.719-28.353,28.353-28.353c15.633,0,28.351,12.719,28.351,28.353
			C422,198.827,409.282,211.546,393.649,211.546z"/>
	</g>
</g>
<g>
</g>
<g>
</g>
<g>
</g>
<g>
</g>
<g>
</g>
<g>
</g>
<g>
</g>
<g>
</g>
<g>
</g>
<g>
</g>
<g>
</g>
<g>
</g>
<g>
</g>
<g>
</g>
<g>
</g>
</svg>
