<?xml version="1.0" encoding="iso-8859-1"?>
<!-- Generator: Adobe Illustrator 19.0.0, SVG Export Plug-In . SVG Version: 6.00 Build 0)  -->
<svg version="1.1" id="Capa_1" xmlns="http://www.w3.org/2000/svg" xmlns:xlink="http://www.w3.org/1999/xlink" x="0px" y="0px"
	 viewBox="0 0 512 512" style="enable-background:new 0 0 512 512;" xml:space="preserve">
<g>
	<g>
		<path d="M475.679,103.981h-52.923V23.908h-90.058v80.073H36.323L0,277.091h29.998v211.001h452.003V277.091H512L475.679,103.981z
			 M362.701,53.912h30.051v50.07h-30.051V53.912z M451.998,458.087H60.002V277.091h391.996V458.087z M36.952,247.088l23.732-113.103
			h390.632l23.732,113.103H36.952z"/>
	</g>
</g>
<g>
	<g>
		<path d="M89.245,307.095v90.961h151.729v-90.961H89.245z M210.971,368.053h-91.722v-30.954h91.722V368.053z"/>
	</g>
</g>
<g>
	<g>
		<path d="M271.027,307.095v90.961h151.729v-90.961H271.027z M392.753,368.053H301.03v-30.954h91.722V368.053z"/>
	</g>
</g>
<g>
</g>
<g>
</g>
<g>
</g>
<g>
</g>
<g>
</g>
<g>
</g>
<g>
</g>
<g>
</g>
<g>
</g>
<g>
</g>
<g>
</g>
<g>
</g>
<g>
</g>
<g>
</g>
<g>
</g>
</svg>
